#N canvas 620 22 773 768 12;
#N canvas 357 112 490 748 ArduinoRecieve 1;
#X obj 154 166 comport 0 9600;
#X msg 44 97 devices;
#X msg 154 98 open 21;
#X obj 154 273 sel 13 10;
#X obj 154 322 cyclone/zl group 100;
#X obj 154 392 cyclone/fromsymbol;
#X obj 182 203 print;
#X obj 154 354 list tosymbol;
#X obj 154 493 unpack f f f f f f;
#X floatatom 154 637 5 0 0 0 - - -;
#X text 42 75 Comport;
#X text 139 74 Start Data;
#X text 332 75 Stop Data;
#X text 132 637 A0;
#X text 156 523 A1;
#X text 183 546 A2;
#X text 206 570 A3;
#X text 231 593 A4;
#X text 256 614 A5;
#X obj 154 11 inlet;
#X obj 154 43 sel 1 0;
#X obj 44 12 inlet;
#X obj 154 685 outlet;
#X obj 178 524 outlet;
#X obj 203 547 outlet;
#X obj 227 570 outlet;
#X obj 252 592 outlet;
#X obj 277 614 outlet;
#X msg 332 99 close;
#X connect 0 0 3 0;
#X connect 0 0 6 0;
#X connect 1 0 0 0;
#X connect 2 0 0 0;
#X connect 3 0 4 0;
#X connect 3 2 4 0;
#X connect 4 0 7 0;
#X connect 5 0 8 0;
#X connect 7 0 5 0;
#X connect 8 0 9 0;
#X connect 8 1 23 0;
#X connect 8 2 24 0;
#X connect 8 3 25 0;
#X connect 8 4 26 0;
#X connect 8 5 27 0;
#X connect 9 0 22 0;
#X connect 19 0 20 0;
#X connect 20 0 2 0;
#X connect 20 1 28 0;
#X connect 21 0 1 0;
#X connect 28 0 0 0;
#X restore 237 109 pd ArduinoRecieve;
#X obj 353 48 tgl 15 0 empty empty empty 17 7 0 10 -262144 -1 -1 0
1;
#X text 372 43 Start/Stop Data;
#X obj 237 44 bng 15 250 50 0 empty empty empty 17 7 0 10 -262144 -1
-1;
#X text 254 41 Comport;
#X floatatom 237 264 5 0 0 0 - - -;
#X floatatom 237 146 5 0 0 0 - - -;
#N canvas 0 22 507 548 DataSmoother 0;
#X floatatom 194 73 5 0 0 0 - - -;
#X obj 176 131 f;
#X obj 217 132 - 0;
#X obj 217 163 abs 0;
#X obj 217 217 > 2;
#X floatatom 235 188 5 0 0 0 - - -;
#X obj 217 256 sel 1;
#X obj 217 304 bng 15 250 50 0 empty empty empty 17 7 0 10 -262144
-1 -1;
#X obj 249 304 bng 15 250 50 0 empty empty empty 17 7 0 10 -262144
-1 -1;
#X msg 249 329 0;
#X msg 217 329 1;
#X obj 79 131 cyclone/gate;
#X floatatom 199 368 5 0 0 0 - - -;
#X text 267 302 Exceeded range;
#X text 273 188 required change;
#X text 234 73 Input;
#X text 240 369 Output;
#X obj 194 23 inlet;
#X obj 199 428 outlet;
#X obj 307 22 inlet;
#X connect 0 0 11 1;
#X connect 0 0 1 1;
#X connect 0 0 2 0;
#X connect 1 0 2 1;
#X connect 2 0 3 0;
#X connect 3 0 4 0;
#X connect 4 0 6 0;
#X connect 5 0 4 1;
#X connect 6 0 7 0;
#X connect 6 1 8 0;
#X connect 7 0 10 0;
#X connect 7 0 1 0;
#X connect 8 0 9 0;
#X connect 9 0 11 0;
#X connect 10 0 11 0;
#X connect 11 0 12 0;
#X connect 12 0 18 0;
#X connect 17 0 0 0;
#X connect 19 0 5 0;
#X restore 237 231 pd DataSmoother;
#X floatatom 339 201 5 0 0 0 - - -;
#X text 278 146 A0 DataRaw;
#X text 256 201 smoothValue;
#X text 180 264 A0 Data;
#X obj 237 684 *~;
#X obj 237 764 dac~ 1 2;
#X text 263 685 forstærker;
#X obj 237 485 cyclone/cycle~;
#X floatatom 325 342 5 0 0 0 - - -;
#N canvas 0 22 450 300 DataScaler 0;
#X msg 215 140 0;
#X obj 215 106 loadbang;
#X floatatom 161 141 5 0 0 0 - - -;
#X obj 92 179 cyclone/scale;
#X floatatom 179 55 5 0 0 0 - - -;
#X obj 161 83 bng 15 250 50 0 empty empty empty 17 7 0 10 -262144 -1
-1;
#X obj 92 221 outlet;
#X obj 179 26 inlet;
#X obj 91 26 inlet;
#X text 220 56 scale value;
#X obj 161 106 +;
#X obj 335 7 loadbang;
#X msg 335 35 400;
#X connect 0 0 3 1;
#X connect 0 0 3 3;
#X connect 1 0 0 0;
#X connect 2 0 3 4;
#X connect 3 0 6 0;
#X connect 4 0 5 0;
#X connect 4 0 10 1;
#X connect 5 0 3 0;
#X connect 5 0 10 0;
#X connect 7 0 4 0;
#X connect 8 0 3 0;
#X connect 8 0 3 2;
#X connect 10 0 2 0;
#X connect 11 0 12 0;
#X connect 12 0 4 0;
#X restore 237 371 pd DataScaler;
#X text 365 343 scale faktor;
#X obj 162 282 change;
#X obj 162 313 bng 15 250 50 0 empty empty empty 17 7 0 10 -262144
-1 -1;
#X obj 64 282 change;
#X obj 64 312 bng 15 250 50 0 empty empty empty 17 7 0 10 -262144 -1
-1;
#X obj 64 339 tgl 15 0 empty empty empty 17 7 0 10 -262144 -1 -1 0
1;
#X obj 162 340 tgl 15 0 empty empty empty 17 7 0 10 -262144 -1 -1 0
1;
#X obj 255 658 line~;
#X floatatom 64 582 5 0 0 0 - - -;
#X floatatom 64 250 5 0 0 0 - - -;
#N canvas 0 22 507 548 DataSmoother 0;
#X floatatom 194 73 5 0 0 0 - - -;
#X obj 176 131 f;
#X obj 217 132 - 0;
#X obj 217 163 abs 0;
#X obj 217 217 > 2;
#X floatatom 235 188 5 0 0 0 - - -;
#X obj 217 256 sel 1;
#X obj 217 304 bng 15 250 50 0 empty empty empty 17 7 0 10 -262144
-1 -1;
#X obj 249 304 bng 15 250 50 0 empty empty empty 17 7 0 10 -262144
-1 -1;
#X msg 249 329 0;
#X msg 217 329 1;
#X obj 79 131 cyclone/gate;
#X floatatom 199 368 5 0 0 0 - - -;
#X text 267 302 Exceeded range;
#X text 273 188 required change;
#X text 234 73 Input;
#X text 240 369 Output;
#X obj 194 23 inlet;
#X obj 199 428 outlet;
#X obj 307 22 inlet;
#X connect 0 0 11 1;
#X connect 0 0 1 1;
#X connect 0 0 2 0;
#X connect 1 0 2 1;
#X connect 2 0 3 0;
#X connect 3 0 4 0;
#X connect 4 0 6 0;
#X connect 5 0 4 1;
#X connect 6 0 7 0;
#X connect 6 1 8 0;
#X connect 7 0 10 0;
#X connect 7 0 1 0;
#X connect 8 0 9 0;
#X connect 9 0 11 0;
#X connect 10 0 11 0;
#X connect 11 0 12 0;
#X connect 12 0 18 0;
#X connect 17 0 0 0;
#X connect 19 0 5 0;
#X restore 64 217 pd DataSmoother;
#X floatatom 166 187 5 0 0 0 - - -;
#X obj 64 447 &&;
#X obj 144 446 &&;
#X obj 64 397 != 1;
#X obj 126 502 ||;
#X obj 126 535 != 1;
#X obj 126 563 tgl 15 0 empty empty empty 17 7 0 10 -262144 -1 -1 0
1;
#X obj 64 493 ||;
#X obj 64 528 != 1;
#X obj 64 556 tgl 15 0 empty empty empty 17 7 0 10 -262144 -1 -1 0
1;
#X obj 126 459 tgl 15 0 empty empty empty 17 7 0 10 -262144 -1 -1 0
1;
#X obj 137 479 bng 15 250 50 0 empty empty empty 17 7 0 10 -262144
-1 -1;
#X obj 144 417 bng 15 250 50 0 empty empty empty 17 7 0 10 -262144
-1 -1;
#X obj 64 371 bng 15 250 50 0 empty empty empty 17 7 0 10 -262144 -1
-1;
#X text 341 485 Synthesis;
#X obj 166 155 random 5;
#X obj 166 128 bng 15 250 50 0 empty empty empty 17 7 0 10 -262144
-1 -1;
#X obj -38 611 cyclone/pak f f;
#X msg -38 639 \$2 \$1;
#X floatatom -38 582 5 0 0 0 - - -;
#X obj -38 482 random 1100;
#X obj -38 511 + 100;
#X obj -6 63 sel 0;
#X msg -6 189 0;
#X text 137 726 Audiodesign;
#X text 102 710 Frederik la Cour;
#X text 582 506 Growing CoDesign;
#X text 470 522 https://www.growingcodesign.com/;
#X text 39 742 https://github.com/L4COUR;
#X text 300 765 Audio Output;
#X text 478 502 ▓▓▓▓▓▓▓▓▓▓▓▓▓▓;
#X text 464 490 ▓▓▓▓▓▓▓▓▓▓▓▓▓▓▓▓▓▓
;
#X text 464 478 ▓▓▓▓▓▓▓▓▓▓▓▓▓▓▓▓▓▓
;
#X text 464 466 ▓▓▓▓▓▓▓▓▓▓▓▓▓▓▓▓▓▓
;
#X text 450 454 ▓▓▓▓▓▓▓▓▓▓▓▓▓▓▓▓▓▓▓▓▓▓
;
#X text 450 442 ▓▓▓▓▓▓▓▓▓▓▓▓▓▓▓▓▓▓▓▓▓▓
;
#X text 450 430 ▓▓▓▓▓▓▓▓▓▓▓▓▓▓▓▓▓▓▓▓▓▓
;
#X text 450 418 ▓▓▓▓▓▓░░████████▓▓▓▓▓▓
;
#X text 436 406 ▓▓██████░░██████████████▓▓
;
#X text 450 394 ▓▓▓▓██░░██████████▓▓▓▓
;
#X text 478 382 ▓▓░░░░▓▓▓▓▓▓▓▓;
#X text 506 369 ░░░░;
#X text 520 356 ░░;
#X text 520 343 ░░;
#X text 520 330 ░░░░;
#X text 534 317 ░░;
#X text 534 304 ░░▒▒;
#X text 506 291 ░░░░░░░░░░░░;
#X text 492 278 ░░░░░░ ░░▒▒░░░░;
#X text 478 265 ░░░░▒▒░░ ░░▒▒▒▒░░░░
;
#X text 464 252 ░░░░▒▒▒▒░░ ░░▒▒▒▒░░░░
;
#X text 464 239 ░░▒▒▒▒░░░░ ░░░░▒▒▒▒░░
;
#X text 464 226 ░░▒▒░░░░ ░░▒▒░░░░;
#X text 450 213 ░░░░░░░░ ░░░░;
#X text 450 200 ░░░░;
#X text 538 367 PlantVoiceBox_v1.0;
#X connect 0 0 6 0;
#X connect 0 0 45 0;
#X connect 1 0 0 1;
#X connect 1 0 51 0;
#X connect 3 0 0 0;
#X connect 5 0 17 0;
#X connect 5 0 19 0;
#X connect 6 0 7 0;
#X connect 6 0 28 0;
#X connect 7 0 5 0;
#X connect 8 0 7 1;
#X connect 12 0 13 0;
#X connect 12 0 13 1;
#X connect 15 0 12 0;
#X connect 16 0 17 1;
#X connect 17 0 15 0;
#X connect 19 0 20 0;
#X connect 20 0 24 0;
#X connect 21 0 22 0;
#X connect 22 0 23 0;
#X connect 23 0 42 0;
#X connect 23 0 31 0;
#X connect 23 0 30 1;
#X connect 24 0 32 0;
#X connect 24 0 41 0;
#X connect 24 0 31 1;
#X connect 25 0 12 1;
#X connect 26 0 46 1;
#X connect 27 0 21 0;
#X connect 28 0 27 0;
#X connect 29 0 28 1;
#X connect 30 0 36 0;
#X connect 31 0 40 0;
#X connect 31 0 33 1;
#X connect 32 0 30 0;
#X connect 33 0 34 0;
#X connect 34 0 35 0;
#X connect 35 0 36 1;
#X connect 36 0 37 0;
#X connect 37 0 38 0;
#X connect 37 0 39 0;
#X connect 38 0 26 0;
#X connect 39 0 33 0;
#X connect 40 0 33 0;
#X connect 41 0 31 0;
#X connect 42 0 32 0;
#X connect 42 0 49 0;
#X connect 44 0 29 0;
#X connect 45 0 44 0;
#X connect 46 0 47 0;
#X connect 47 0 25 0;
#X connect 48 0 46 0;
#X connect 49 0 50 0;
#X connect 50 0 48 0;
#X connect 51 0 52 0;
#X connect 52 0 38 0;
