#N canvas 147 22 1262 768 12;
#N canvas 357 112 490 748 ArduinoRecieve 0;
#X obj 154 166 comport 0 9600;
#X msg 44 97 devices;
#X msg 154 98 open 21;
#X obj 154 273 sel 13 10;
#X obj 154 322 cyclone/zl group 100;
#X obj 154 392 cyclone/fromsymbol;
#X obj 182 203 print;
#X obj 154 354 list tosymbol;
#X obj 154 493 unpack f f f f f f;
#X floatatom 154 637 5 0 0 0 - - -;
#X text 42 75 Comport;
#X text 139 74 Start Data;
#X text 332 75 Stop Data;
#X text 132 637 A0;
#X text 156 523 A1;
#X text 183 546 A2;
#X text 206 570 A3;
#X text 231 593 A4;
#X text 256 614 A5;
#X obj 154 11 inlet;
#X obj 154 43 sel 1 0;
#X obj 44 12 inlet;
#X obj 154 685 outlet;
#X obj 178 524 outlet;
#X obj 203 547 outlet;
#X obj 227 570 outlet;
#X obj 252 592 outlet;
#X obj 277 614 outlet;
#X msg 332 99 close;
#X connect 0 0 3 0;
#X connect 0 0 6 0;
#X connect 1 0 0 0;
#X connect 2 0 0 0;
#X connect 3 0 4 0;
#X connect 3 2 4 0;
#X connect 4 0 7 0;
#X connect 5 0 8 0;
#X connect 7 0 5 0;
#X connect 8 0 9 0;
#X connect 8 1 23 0;
#X connect 8 2 24 0;
#X connect 8 3 25 0;
#X connect 8 4 26 0;
#X connect 8 5 27 0;
#X connect 9 0 22 0;
#X connect 19 0 20 0;
#X connect 20 0 2 0;
#X connect 20 1 28 0;
#X connect 21 0 1 0;
#X connect 28 0 0 0;
#X restore 237 109 pd ArduinoRecieve;
#X obj 353 48 tgl 15 0 empty empty empty 17 7 0 10 -262144 -1 -1 0
1;
#X text 372 43 Start/Stop Data;
#X obj 237 44 bng 15 250 50 0 empty empty empty 17 7 0 10 -262144 -1
-1;
#X text 254 41 Comport;
#X floatatom 237 264 5 0 0 0 - - -;
#X floatatom 237 146 5 0 0 0 - - -;
#N canvas 0 22 507 548 DataSmoother 0;
#X floatatom 194 73 5 0 0 0 - - -;
#X obj 176 131 f;
#X obj 217 132 - 0;
#X obj 217 163 abs 0;
#X obj 217 217 > 2;
#X floatatom 235 188 5 0 0 0 - - -;
#X obj 217 256 sel 1;
#X obj 217 304 bng 15 250 50 0 empty empty empty 17 7 0 10 -262144
-1 -1;
#X obj 249 304 bng 15 250 50 0 empty empty empty 17 7 0 10 -262144
-1 -1;
#X msg 249 329 0;
#X msg 217 329 1;
#X obj 79 131 cyclone/gate;
#X floatatom 199 368 5 0 0 0 - - -;
#X text 267 302 Exceeded range;
#X text 273 188 required change;
#X text 234 73 Input;
#X text 240 369 Output;
#X obj 194 23 inlet;
#X obj 199 428 outlet;
#X obj 307 22 inlet;
#X connect 0 0 11 1;
#X connect 0 0 1 1;
#X connect 0 0 2 0;
#X connect 1 0 2 1;
#X connect 2 0 3 0;
#X connect 3 0 4 0;
#X connect 4 0 6 0;
#X connect 5 0 4 1;
#X connect 6 0 7 0;
#X connect 6 1 8 0;
#X connect 7 0 10 0;
#X connect 7 0 1 0;
#X connect 8 0 9 0;
#X connect 9 0 11 0;
#X connect 10 0 11 0;
#X connect 11 0 12 0;
#X connect 12 0 18 0;
#X connect 17 0 0 0;
#X connect 19 0 5 0;
#X restore 237 231 pd DataSmoother;
#X floatatom 339 201 5 0 0 0 - - -;
#X text 278 146 A0 DataRaw;
#X text 256 201 smoothValue;
#X text 180 264 A0 Data;
#X obj 239 989 *~;
#X obj 239 1069 dac~ 1 2;
#X text 265 990 forstærker;
#X floatatom 903 230 5 0 0 0 - - -;
#N canvas 0 22 450 300 DataScaler 0;
#X msg 215 140 0;
#X obj 215 106 loadbang;
#X floatatom 161 141 5 0 0 0 - - -;
#X obj 92 179 cyclone/scale;
#X floatatom 179 55 5 0 0 0 - - -;
#X obj 161 83 bng 15 250 50 0 empty empty empty 17 7 0 10 -262144 -1
-1;
#X obj 92 221 outlet;
#X obj 179 26 inlet;
#X obj 91 26 inlet;
#X text 220 56 scale value;
#X obj 161 106 +;
#X obj 335 7 loadbang;
#X msg 335 35 450;
#X connect 0 0 3 1;
#X connect 0 0 3 3;
#X connect 1 0 0 0;
#X connect 2 0 3 4;
#X connect 3 0 6 0;
#X connect 4 0 5 0;
#X connect 4 0 10 1;
#X connect 5 0 3 0;
#X connect 5 0 10 0;
#X connect 7 0 4 0;
#X connect 8 0 3 0;
#X connect 8 0 3 2;
#X connect 10 0 2 0;
#X connect 11 0 12 0;
#X connect 12 0 4 0;
#X restore 237 388 pd DataScaler;
#X text 943 228 scale faktor;
#X obj 162 282 change;
#X obj 162 313 bng 15 250 50 0 empty empty empty 17 7 0 10 -262144
-1 -1;
#X obj 64 282 change;
#X obj 64 312 bng 15 250 50 0 empty empty empty 17 7 0 10 -262144 -1
-1;
#X obj 64 339 tgl 15 0 empty empty empty 17 7 0 10 -262144 -1 -1 1
1;
#X obj 162 340 tgl 15 0 empty empty empty 17 7 0 10 -262144 -1 -1 1
1;
#X obj 257 957 line~;
#X floatatom 64 624 5 0 0 0 - - -;
#X floatatom 64 250 5 0 0 0 - - -;
#N canvas 0 22 507 548 DataSmoother 0;
#X floatatom 194 73 5 0 0 0 - - -;
#X obj 176 131 f;
#X obj 217 132 - 0;
#X obj 217 163 abs 0;
#X obj 217 217 > 2;
#X floatatom 235 188 5 0 0 0 - - -;
#X obj 217 256 sel 1;
#X obj 217 304 bng 15 250 50 0 empty empty empty 17 7 0 10 -262144
-1 -1;
#X obj 249 304 bng 15 250 50 0 empty empty empty 17 7 0 10 -262144
-1 -1;
#X msg 249 329 0;
#X msg 217 329 1;
#X obj 79 131 cyclone/gate;
#X floatatom 199 368 5 0 0 0 - - -;
#X text 267 302 Exceeded range;
#X text 273 188 required change;
#X text 234 73 Input;
#X text 240 369 Output;
#X obj 194 23 inlet;
#X obj 199 428 outlet;
#X obj 307 22 inlet;
#X connect 0 0 11 1;
#X connect 0 0 1 1;
#X connect 0 0 2 0;
#X connect 1 0 2 1;
#X connect 2 0 3 0;
#X connect 3 0 4 0;
#X connect 4 0 6 0;
#X connect 5 0 4 1;
#X connect 6 0 7 0;
#X connect 6 1 8 0;
#X connect 7 0 10 0;
#X connect 7 0 1 0;
#X connect 8 0 9 0;
#X connect 9 0 11 0;
#X connect 10 0 11 0;
#X connect 11 0 12 0;
#X connect 12 0 18 0;
#X connect 17 0 0 0;
#X connect 19 0 5 0;
#X restore 64 217 pd DataSmoother;
#X floatatom 166 187 5 0 0 0 - - -;
#X obj 64 447 &&;
#X obj 144 446 &&;
#X obj 64 397 != 1;
#X obj 126 502 ||;
#X obj 126 535 != 1;
#X obj 126 563 tgl 15 0 empty empty empty 17 7 0 10 -262144 -1 -1 0
1;
#X obj 64 493 ||;
#X obj 64 528 != 1;
#X obj 64 599 tgl 15 0 empty empty empty 17 7 0 10 -262144 -1 -1 0
1;
#X obj 126 459 tgl 15 0 empty empty empty 17 7 0 10 -262144 -1 -1 1
1;
#X obj 137 479 bng 15 250 50 0 empty empty empty 17 7 0 10 -262144
-1 -1;
#X obj 144 417 bng 15 250 50 0 empty empty empty 17 7 0 10 -262144
-1 -1;
#X obj 64 371 bng 15 250 50 0 empty empty empty 17 7 0 10 -262144 -1
-1;
#X text 341 485 Synthesis;
#X obj 166 155 random 5;
#X obj 166 128 bng 15 250 50 0 empty empty empty 17 7 0 10 -262144
-1 -1;
#X obj -6 63 sel 0;
#X msg -6 189 0;
#X text 139 1031 Audiodesign;
#X text 104 1015 Frederik la Cour;
#X text 628 312 Growing CoDesign;
#X text 516 328 https://www.growingcodesign.com/;
#X text 41 1047 https://github.com/L4COUR;
#X text 302 1070 Audio Output;
#X text 524 308 ▓▓▓▓▓▓▓▓▓▓▓▓▓▓;
#X text 510 296 ▓▓▓▓▓▓▓▓▓▓▓▓▓▓▓▓▓▓
;
#X text 510 284 ▓▓▓▓▓▓▓▓▓▓▓▓▓▓▓▓▓▓
;
#X text 510 272 ▓▓▓▓▓▓▓▓▓▓▓▓▓▓▓▓▓▓
;
#X text 496 260 ▓▓▓▓▓▓▓▓▓▓▓▓▓▓▓▓▓▓▓▓▓▓
;
#X text 496 248 ▓▓▓▓▓▓▓▓▓▓▓▓▓▓▓▓▓▓▓▓▓▓
;
#X text 496 236 ▓▓▓▓▓▓▓▓▓▓▓▓▓▓▓▓▓▓▓▓▓▓
;
#X text 496 224 ▓▓▓▓▓▓░░████████▓▓▓▓▓▓
;
#X text 482 212 ▓▓██████░░██████████████▓▓
;
#X text 496 200 ▓▓▓▓██░░██████████▓▓▓▓
;
#X text 524 188 ▓▓░░░░▓▓▓▓▓▓▓▓;
#X text 552 175 ░░░░;
#X text 566 162 ░░;
#X text 566 149 ░░;
#X text 566 136 ░░░░;
#X text 580 123 ░░;
#X text 580 110 ░░▒▒;
#X text 552 97 ░░░░░░░░░░░░;
#X text 538 84 ░░░░░░ ░░▒▒░░░░;
#X text 524 71 ░░░░▒▒░░ ░░▒▒▒▒░░░░
;
#X text 510 58 ░░░░▒▒▒▒░░ ░░▒▒▒▒░░░░
;
#X text 510 45 ░░▒▒▒▒░░░░ ░░░░▒▒▒▒░░
;
#X text 510 32 ░░▒▒░░░░ ░░▒▒░░░░;
#X text 496 19 ░░░░░░░░ ░░░░;
#X text 496 6 ░░░░;
#X text 584 173 PlantVoiceBox_v1.0;
#X floatatom 760 583 5 0 0 0 - - -;
#X floatatom 830 906 5 0 0 0 - - -;
#X floatatom 856 585 6 0 0 0 - - -;
#X floatatom 908 585 6 0 0 0 - - -;
#X obj 1015 713 line~;
#X obj 1019 639 hsl 128 15 0 0.2 0 0 empty empty empty -2 -8 0 10 -228856
-1 -1 0 1;
#X floatatom 1015 664 5 0 0 0 - - -;
#X obj 859 494 hsl 128 15 -1 1 0 0 empty empty empty -2 -8 0 10 -249661
-1 -1 0 1;
#X obj 912 512 hsl 128 15 -1 1 0 0 empty empty empty -2 -8 0 10 -249661
-1 -1 12700 1;
#X msg 1015 687 \$1 50;
#X obj 760 608 phasor~ 229;
#X msg 856 607 lo \$1;
#X msg 908 607 hi \$1;
#X obj 760 635 cyclone/triangle~ @lo -0.5 @hi 0.5;
#X floatatom 848 948 5 0 0 0 - - -;
#X text 830 885 gain;
#X text 859 927 Q;
#N canvas 0 22 701 572 filterBank 0;
#X obj 111 330 cyclone/reson~;
#X floatatom 142 236 5 0 0 0 - - -;
#X floatatom 174 257 5 0 0 0 - - -;
#X floatatom 206 279 5 0 0 0 - - -;
#X obj 253 340 cyclone/reson~;
#X floatatom 284 246 5 0 0 0 - - -;
#X floatatom 316 267 5 0 0 0 - - -;
#X floatatom 348 289 5 0 0 0 - - -;
#X obj 410 341 cyclone/reson~;
#X floatatom 441 247 5 0 0 0 - - -;
#X floatatom 473 268 5 0 0 0 - - -;
#X floatatom 505 291 5 0 0 0 - - -;
#X obj 392 409 +~;
#X obj 374 484 +~;
#X floatatom 542 168 5 0 0 0 - - -;
#X floatatom 606 166 5 0 0 0 - - -;
#X text 542 147 gain;
#X text 617 145 Q;
#X obj 545 101 inlet;
#X obj 596 100 inlet;
#X obj 35 96 inlet~;
#X obj 376 522 outlet~;
#X obj 180 95 inlet;
#X obj 303 98 inlet;
#X obj 462 99 inlet;
#X connect 0 0 13 0;
#X connect 1 0 0 1;
#X connect 2 0 0 2;
#X connect 3 0 0 3;
#X connect 4 0 12 0;
#X connect 5 0 4 1;
#X connect 6 0 4 2;
#X connect 7 0 4 3;
#X connect 8 0 12 1;
#X connect 9 0 8 1;
#X connect 10 0 8 2;
#X connect 11 0 8 3;
#X connect 12 0 13 1;
#X connect 13 0 21 0;
#X connect 14 0 1 0;
#X connect 14 0 5 0;
#X connect 14 0 9 0;
#X connect 15 0 3 0;
#X connect 15 0 7 0;
#X connect 15 0 11 0;
#X connect 18 0 14 0;
#X connect 19 0 15 0;
#X connect 20 0 0 0;
#X connect 20 0 4 0;
#X connect 20 0 8 0;
#X connect 22 0 2 0;
#X connect 23 0 6 0;
#X connect 24 0 10 0;
#X restore 760 973 pd filterBank;
#X text 522 915 F1;
#X text 594 917 F2;
#X text 663 919 F3;
#X floatatom 523 572 5 0 0 0 - - -;
#X obj 523 621 cyclone/coll simpleVowels;
#C restore;
#X obj 593 574 bng 15 250 50 0 empty empty empty 17 7 0 10 -262144
-1 -1;
#N canvas 705 22 678 736 simpleVowels 0;
#X msg 88 82 1 240 2400 2160 \;;
#X msg 98 112 2 235 2100 1865 \;;
#X msg 110 142 3 390 2300 1910 \;;
#X msg 119 170 4 370 1900 1530 \;;
#X msg 129 196 5 610 1900 1290 \;;
#X msg 138 222 6 585 1710 1125 \;;
#X msg 146 245 7 850 1610 760 \;;
#X msg 155 270 8 750 940 190 \;;
#X msg 162 296 9 700 760 60 \;;
#X msg 171 321 10 600 1170 570 \;;
#X msg 178 345 11 500 700 200 \;;
#X msg 192 371 12 460 1310 850 \;;
#X msg 203 400 13 360 640 280 \;;
#X msg 212 430 14 300 1390 1090 \;;
#X msg 220 457 15 250 595 345 \;;
#X obj 452 24 bng 15 250 50 0 empty empty empty 17 7 0 10 -262144 -1
-1;
#X obj 67 20 inlet;
#X obj 89 836 outlet;
#X msg 228 488 16 570 840 2410 \;;
#X msg 238 518 17 300 870 2240 \;;
#X msg 249 548 18 440 1020 2240 \;;
#X msg 259 576 19 730 1090 2440 \;;
#X msg 269 602 20 520 1190 2390 \;;
#X msg 278 628 21 490 1350 1690 \;;
#X msg 286 651 22 660 1720 2410 \;;
#X msg 295 676 23 530 1840 2480 \;;
#X msg 302 702 24 390 1990 2550 \;;
#X msg 311 727 25 270 2290 3010 \;;
#X connect 0 0 17 0;
#X connect 1 0 17 0;
#X connect 2 0 17 0;
#X connect 3 0 17 0;
#X connect 4 0 17 0;
#X connect 5 0 17 0;
#X connect 6 0 17 0;
#X connect 7 0 17 0;
#X connect 8 0 17 0;
#X connect 9 0 17 0;
#X connect 10 0 17 0;
#X connect 11 0 17 0;
#X connect 12 0 17 0;
#X connect 13 0 17 0;
#X connect 14 0 17 0;
#X connect 15 0 0 0;
#X connect 15 0 1 0;
#X connect 15 0 2 0;
#X connect 15 0 3 0;
#X connect 15 0 4 0;
#X connect 15 0 5 0;
#X connect 15 0 6 0;
#X connect 15 0 7 0;
#X connect 15 0 8 0;
#X connect 15 0 9 0;
#X connect 15 0 10 0;
#X connect 15 0 11 0;
#X connect 15 0 12 0;
#X connect 15 0 13 0;
#X connect 15 0 14 0;
#X connect 15 0 18 0;
#X connect 15 0 19 0;
#X connect 15 0 20 0;
#X connect 15 0 21 0;
#X connect 15 0 22 0;
#X connect 15 0 23 0;
#X connect 15 0 24 0;
#X connect 15 0 25 0;
#X connect 15 0 26 0;
#X connect 15 0 27 0;
#X connect 16 0 15 0;
#X connect 18 0 17 0;
#X connect 19 0 17 0;
#X connect 20 0 17 0;
#X connect 21 0 17 0;
#X connect 22 0 17 0;
#X connect 23 0 17 0;
#X connect 24 0 17 0;
#X connect 25 0 17 0;
#X connect 26 0 17 0;
#X connect 27 0 17 0;
#X restore 593 596 pd simpleVowels;
#X obj 559 223 loadbang;
#X obj 544 803 vsl 15 128 235 850 0 0 empty empty empty 0 -9 0 10 -262144
-1 -1 4646 1;
#X obj 616 805 vsl 15 128 595 2400 0 0 empty empty empty 0 -9 0 10
-262144 -1 -1 5031 1;
#X obj 686 803 vsl 15 128 60 2160 0 0 empty empty empty 0 -9 0 10 -262144
-1 -1 4778 1;
#X obj 544 775 line;
#X msg 544 746 \$1 \$2;
#X obj 544 720 pack f f;
#X floatatom 709 621 5 0 0 0 - - -;
#X obj 616 775 line;
#X msg 616 746 \$1 \$2;
#X obj 616 720 pack f f;
#X obj 686 774 line;
#X msg 686 745 \$1 \$2;
#X obj 686 720 pack f f;
#X msg 709 595 700;
#X msg 856 460 -1;
#X msg 908 470 1;
#X msg 523 544 5;
#X obj 544 645 unpack f f f;
#X msg 339 175 5;
#X obj 227 660 bng 15 250 50 0 empty empty empty 17 7 0 10 -262144
-1 -1;
#X obj 228 634 sel 1;
#X obj 227 680 random 26;
#X obj 227 739 line;
#X msg 227 710 \$1 400;
#X obj 64 813 cyclone/pak;
#X text 1017 616 Open close mouth;
#X msg 849 828 25;
#X msg 830 853 2;
#X msg 64 853 \$1 \$2;
#X floatatom 138 741 5 0 0 0 - - -;
#X obj 138 682 random 400;
#X obj 138 711 + 100;
#X floatatom 820 285 8 0 0 0 - - -;
#X obj 820 209 env~ 4096;
#X obj 819 139 noise~;
#X obj 819 177 *~;
#X obj 901 152 osc~;
#X floatatom 908 110 5 0 0 0 - - -;
#X obj 821 251 *;
#X msg 903 200 3;
#X obj 64 560 sel 1;
#X obj 1046 94 bng 15 250 50 0 empty empty empty 17 7 0 10 -262144
-1 -1;
#X obj 1046 195 line;
#X msg 1046 166 \$1 400;
#X obj 1046 114 random 3.5;
#X obj 1067 381 bng 15 250 50 0 empty empty empty 17 7 0 10 -262144
-1 -1;
#X obj 1067 484 line 0.5;
#X obj 1068 427 * 0.01;
#X msg 1067 454 \$1 400;
#X floatatom 1076 525 5 0 0 0 - - -;
#X obj 1067 401 random 3;
#X obj 1046 140 + 0.2;
#X connect 0 0 6 0;
#X connect 0 0 44 0;
#X connect 1 0 0 1;
#X connect 1 0 45 0;
#X connect 3 0 0 0;
#X connect 5 0 16 0;
#X connect 5 0 18 0;
#X connect 6 0 7 0;
#X connect 6 0 27 0;
#X connect 7 0 5 0;
#X connect 8 0 7 1;
#X connect 12 0 13 0;
#X connect 12 0 13 1;
#X connect 15 0 143 1;
#X connect 16 0 79 0;
#X connect 18 0 19 0;
#X connect 18 0 150 0;
#X connect 19 0 23 0;
#X connect 20 0 21 0;
#X connect 21 0 22 0;
#X connect 22 0 41 0;
#X connect 22 0 30 0;
#X connect 22 0 29 1;
#X connect 23 0 31 0;
#X connect 23 0 40 0;
#X connect 23 0 30 1;
#X connect 24 0 12 1;
#X connect 25 0 129 0;
#X connect 26 0 20 0;
#X connect 27 0 26 0;
#X connect 28 0 27 1;
#X connect 29 0 35 0;
#X connect 30 0 39 0;
#X connect 30 0 32 1;
#X connect 31 0 29 0;
#X connect 32 0 33 0;
#X connect 33 0 34 0;
#X connect 34 0 35 1;
#X connect 35 0 36 0;
#X connect 36 0 38 0;
#X connect 36 0 145 0;
#X connect 37 0 25 0;
#X connect 37 0 125 0;
#X connect 38 0 32 0;
#X connect 39 0 32 0;
#X connect 40 0 30 0;
#X connect 41 0 31 0;
#X connect 43 0 28 0;
#X connect 44 0 43 0;
#X connect 45 0 46 0;
#X connect 46 0 37 0;
#X connect 79 0 89 0;
#X connect 80 0 96 4;
#X connect 81 0 90 0;
#X connect 82 0 91 0;
#X connect 83 0 92 1;
#X connect 84 0 85 0;
#X connect 85 0 88 0;
#X connect 86 0 81 0;
#X connect 87 0 82 0;
#X connect 88 0 83 0;
#X connect 89 0 92 0;
#X connect 90 0 92 0;
#X connect 91 0 92 0;
#X connect 92 0 96 0;
#X connect 93 0 96 5;
#X connect 96 0 12 0;
#X connect 100 0 101 0;
#X connect 101 0 122 0;
#X connect 102 0 103 0;
#X connect 103 0 101 0;
#X connect 104 0 102 0;
#X connect 104 0 132 0;
#X connect 104 0 131 0;
#X connect 104 0 118 0;
#X connect 104 0 119 0;
#X connect 104 0 120 0;
#X connect 104 0 121 0;
#X connect 104 0 123 0;
#X connect 104 0 144 0;
#X connect 105 0 96 1;
#X connect 106 0 96 2;
#X connect 107 0 96 3;
#X connect 108 0 105 0;
#X connect 109 0 108 0;
#X connect 110 0 109 0;
#X connect 111 0 110 1;
#X connect 111 0 114 1;
#X connect 111 0 117 1;
#X connect 112 0 106 0;
#X connect 113 0 112 0;
#X connect 114 0 113 0;
#X connect 115 0 107 0;
#X connect 116 0 115 0;
#X connect 117 0 116 0;
#X connect 118 0 111 0;
#X connect 119 0 86 0;
#X connect 120 0 87 0;
#X connect 121 0 100 0;
#X connect 122 0 110 0;
#X connect 122 1 114 0;
#X connect 122 2 117 0;
#X connect 123 0 8 0;
#X connect 124 0 126 0;
#X connect 124 0 135 0;
#X connect 125 0 124 0;
#X connect 125 1 146 0;
#X connect 126 0 128 0;
#X connect 127 0 100 0;
#X connect 128 0 127 0;
#X connect 129 0 133 0;
#X connect 131 0 93 0;
#X connect 132 0 80 0;
#X connect 133 0 24 0;
#X connect 134 0 129 1;
#X connect 135 0 136 0;
#X connect 136 0 134 0;
#X connect 137 0 16 1;
#X connect 138 0 143 0;
#X connect 139 0 140 0;
#X connect 140 0 138 0;
#X connect 141 0 140 1;
#X connect 142 0 141 0;
#X connect 143 0 137 0;
#X connect 144 0 15 0;
#X connect 145 0 37 0;
#X connect 146 0 149 0;
#X connect 147 0 15 0;
#X connect 148 0 147 0;
#X connect 149 0 156 0;
#X connect 150 0 155 0;
#X connect 151 0 154 0;
#X connect 151 0 84 0;
#X connect 152 0 153 0;
#X connect 153 0 151 0;
#X connect 155 0 152 0;
#X connect 156 0 148 0;
